<svg id='Spring_Logo_24' width='24' height='24' viewBox='0 0 24 24' xmlns='http://www.w3.org/2000/svg' xmlns:xlink='http://www.w3.org/1999/xlink'><rect width='24' height='24' stroke='none' fill='#000000' opacity='0'/>


    <g transform="matrix(0.42 0 0 0.42 12 12)" >
        <g style="" >
            <g transform="matrix(1 0 0 1 0 -0.15)" >
                <path style="stroke: none; stroke-width: 1; stroke-dasharray: none; stroke-linecap: butt; stroke-dashoffset: 0; stroke-linejoin: miter; stroke-miterlimit: 4; fill: rgb(139,195,74); fill-rule: nonzero; opacity: 1;" transform=" translate(-24, -23.85)" d="M 43.982 23.635 C 44.051 19.374000000000002 43.091 14.307000000000002 41.091 8.362000000000002 L 39.523 3.700000000000002 L 37.393 8.133000000000003 C 37.279 8.370000000000003 37.149 8.602000000000002 37.013 8.831000000000003 C 33.514 5.827 28.974 4 24 4 C 12.954 4 4 12.954 4 24 C 4 35.046 12.954 44 24 44 C 35.046 44 44 35.046 44 24 C 44 23.877 43.984 23.758 43.982 23.635 z" stroke-linecap="round" />
            </g>
            <g transform="matrix(1 0 0 1 2.5 0)" >
                <path style="stroke: none; stroke-width: 1; stroke-dasharray: none; stroke-linecap: butt; stroke-dashoffset: 0; stroke-linejoin: miter; stroke-miterlimit: 4; fill: rgb(255,255,255); fill-rule: nonzero; opacity: 1;" transform=" translate(-26.5, -24)" d="M 39.385 32.558 C 36.262 36.86 30.733999999999998 37.091 25.531 37 L 18.75 37 L 16.812 37 C 21.240000000000002 35.407 23.875 35.028 26.566000000000003 33.6 C 31.634 30.935000000000002 36.644000000000005 25.104 37.687000000000005 19.038000000000004 C 35.757000000000005 24.874000000000002 29.908000000000005 29.888000000000005 24.578000000000003 31.927000000000003 C 20.926000000000002 33.32 14.330000000000004 34.672000000000004 14.330000000000004 34.672000000000004 L 14.063000000000004 34.527 C 9.573 32.268 9.437 22.214 17.6 18.968 C 21.174 17.545 24.593000000000004 18.326999999999998 28.454 17.375 C 32.576 16.363 37.344 13.167 39.284 9 C 41.456 15.667 44.07 26.106 39.385 32.558 L 39.385 32.558 z M 15.668 38.445 C 15.386 38.795 14.955 39 14.505 39 C 13.682 39 13.010000000000002 38.323 13.010000000000002 37.5 C 13.010000000000002 36.677 13.687000000000001 36 14.505000000000003 36 C 14.846000000000002 36 15.182000000000002 36.118 15.446000000000003 36.336 C 16.086 36.855 16.186 37.805 15.668 38.445 L 15.668 38.445 z" stroke-linecap="round" />
            </g>
        </g>
    </g>
</svg>