<?xml version="1.0" encoding="utf-8"?>
<!-- Generator: Adobe Illustrator 27.5.0, SVG Export Plug-In . SVG Version: 6.00 Build 0)  -->
<svg version="1.1" id="Capa_1" xmlns="http://www.w3.org/2000/svg" xmlns:xlink="http://www.w3.org/1999/xlink" x="0px" y="0px"
	 viewBox="0 0 2122 2122" style="enable-background:new 0 0 2122 2122;" xml:space="preserve">
<path style="fill:#424582;" d="M1903.758,286.578H896.34H217.559c-36.59,0-66.246,29.656-66.246,66.25v3.512v1067.648v8.809
	c0,36.59,29.656,66.25,66.246,66.25h565.715v256.734c-40.449,5.352-72.246,38.055-76.078,78.969h750.832
	c-3.832-40.914-35.629-73.617-76.078-78.969v-256.734h182.379h339.43c36.59,0,66.25-29.66,66.25-66.25v-8.809V356.34v-3.512
	C1970.008,316.234,1940.348,286.578,1903.758,286.578z"/>
<g>
	<polygon style="fill:#2E2D62;" points="934.773,356.34 1522.977,1423.988 1970.008,1423.988 1970.008,356.34 	"/>
	<path style="fill:#2E2D62;" d="M1060.664,308.117c-10.563,0-19.129,8.563-19.129,19.121c0,10.563,8.566,19.125,19.129,19.125
		c10.555,0,19.121-8.563,19.121-19.125C1079.785,316.68,1071.219,308.117,1060.664,308.117z"/>
	<path style="fill:#201D45;" d="M783.273,1755.781c3.816-0.504,7.688-0.855,11.645-0.855h575.394c3.957,0,7.824,0.352,11.637,0.855
		v-256.734H783.273V1755.781z"/>
	<path style="fill:#FFFFFF;" d="M1829.602,1279.305c16.531,0,29.934-13.402,29.934-29.934V461.113
		c0-16.531-13.402-29.934-29.934-29.934s-29.934,13.402-29.934,29.934v788.258
		C1799.668,1265.902,1813.07,1279.305,1829.602,1279.305z"/>
	<path style="fill:#5157A2;" d="M151.313,1423.988v8.809c0,36.59,29.656,66.25,66.246,66.25h565.715h598.676h182.379l-41.352-75.059
		H151.313z"/>
	<path style="fill:#5157A2;" d="M896.34,286.578H217.559c-36.59,0-66.246,29.656-66.246,66.25v3.512h783.461L896.34,286.578z"/>
	<polygon style="fill:#424582;" points="934.773,356.34 151.313,356.34 151.313,1423.988 1522.977,1423.988 	"/>
</g>
</svg>
