<?xml version="1.0" encoding="UTF-8"?>
<svg xmlns="http://www.w3.org/2000/svg" version="1.1" viewBox="0 0 369.012 374.697">
  <!-- Generator: Adobe Illustrator 28.7.7, SVG Export Plug-In . SVG Version: 1.2.0 Build 194)  -->
  <g style="isolation: isolate;">
    <g id="Layer_1">
      <g>
        <g>
          <g>
            <path d="M319.163,344.703c-.078,0-.158-.005-.238-.016-.507-.07-12.502-1.777-18.831-8.289-3.653-3.758-4.631-8.326-2.908-13.575,2.623-7.992,2.079-12.368-1.878-15.104-6.886-4.761-25.946-4.91-61.802-.482-.642.08-1.257-.204-1.376-.633-.118-.429.305-.841.947-.92,37.214-4.595,56.333-4.315,63.928.937,5.67,3.92,4.546,10.267,2.486,16.541-1.581,4.817-.716,8.977,2.572,12.366,5.777,5.955,17.221,7.596,17.335,7.612.638.088,1.049.506.918.932-.115.373-.606.631-1.155.631Z" style="fill: #fffef0;"/>
            <path d="M319.163,344.9c-.087,0-.176-.006-.264-.018-.511-.07-12.582-1.799-18.945-8.346-3.708-3.815-4.702-8.449-2.954-13.774,2.591-7.893,2.069-12.204-1.802-14.881-6.843-4.731-25.861-4.87-61.666-.448-.748.095-1.444-.248-1.59-.776-.058-.212-.02-.434.109-.627.19-.284.565-.486,1.004-.54,37.266-4.603,56.425-4.312,64.064.97,5.776,3.994,4.645,10.418,2.562,16.764-1.556,4.741-.706,8.835,2.526,12.167,5.744,5.921,17.107,7.539,17.221,7.555.436.06.805.267.987.554.124.196.157.42.092.632-.139.453-.692.769-1.343.769ZM274.194,303.834c10.777,0,17.636,1.239,21.227,3.722,4.043,2.795,4.608,7.236,1.953,15.328-1.699,5.175-.735,9.675,2.862,13.377,6.27,6.451,18.211,8.162,18.716,8.231.54.072,1.079-.155,1.178-.477.032-.103.016-.205-.048-.305-.121-.19-.386-.331-.709-.375-.115-.016-11.613-1.653-17.45-7.67-3.342-3.445-4.223-7.672-2.617-12.564,2.035-6.201,3.152-12.471-2.411-16.318-7.552-5.223-26.631-5.492-63.792-.904-.326.04-.597.178-.725.369-.066.098-.085.2-.057.303.092.332.623.557,1.161.49,17.296-2.136,30.696-3.206,40.711-3.206Z" style="fill: #000001;"/>
          </g>
          <g>
            <g>
              <path d="M333.76,327.727c-7.198-1.39-14.71-1.132-21.466.851-3.346.982-6.78,2.973-7.775,6.542-1.696,6.083,1.658,10.788,6.228,14.445,5.717,4.575,12.218,8.316,18.942,11.193,8.165,3.494,21.295,4.002,29.17-.636,8.403-4.949,3.089-13.895-1.61-19.343-6.088-7.058-14.413-11.301-23.488-13.053Z" style="fill: #fffef0;"/>
              <path d="M344.302,363.702c-5.332,0-10.657-1.036-14.691-2.762-7.083-3.031-13.472-6.806-18.988-11.221-5.71-4.57-7.769-9.363-6.294-14.652,1.151-4.129,5.45-5.957,7.909-6.678,6.746-1.981,14.201-2.277,21.558-.855,9.643,1.862,17.804,6.398,23.6,13.118,2.586,2.998,6.801,8.776,5.975,13.79-.394,2.389-1.879,4.357-4.413,5.85-4.051,2.386-9.357,3.41-14.656,3.41ZM324.633,327.043c-4.229,0-8.377.577-12.284,1.724-2.381.699-6.541,2.461-7.641,6.407-1.427,5.12.588,9.778,6.161,14.239,5.488,4.392,11.846,8.149,18.897,11.166,7.953,3.403,20.972,4.1,28.992-.625,2.43-1.431,3.851-3.307,4.225-5.575.801-4.856-3.343-10.523-5.884-13.469-5.738-6.652-13.821-11.143-23.377-12.988-3.032-.586-6.081-.877-9.089-.877Z" style="fill: #000001;"/>
            </g>
            <path d="M352.543,361.985c-4.852.724-10.014.335-14.631-1.37-2.785-1.029-5.329-2.561-7.619-4.444-2.352-1.935-4.416-4.191-6.379-6.511-3.281-3.877-6.284-8.089-10.159-11.416-1.79-1.536-3.852-2.984-6.184-3.527-.951-.221-1.942-.262-2.899-.062-.054.153-.109.306-.153.465-1.696,6.083,1.658,10.788,6.228,14.445,5.717,4.575,12.218,8.316,18.942,11.193,7.945,3.4,20.591,3.971,28.521-.275-1.825.723-3.749,1.215-5.667,1.501Z" style="fill: #dbdad1; mix-blend-mode: multiply;"/>
          </g>
        </g>
        <g>
          <g>
            <g>
              <g>
                <polygon points="253.883 242.486 176.2 242.486 144.949 242.486 67.265 242.486 38.158 269.832 121.444 269.832 199.704 269.832 282.99 269.832 253.883 242.486" style="fill: #dbdad1;"/>
                <path d="M282.99,270.029H38.158c-.081,0-.153-.049-.183-.124-.03-.075-.011-.161.048-.216l29.107-27.346c.037-.034.084-.053.135-.053h186.618c.05,0,.098.019.135.053l29.107,27.346c.059.055.078.141.048.216-.03.075-.102.124-.183.124ZM38.655,269.636h243.838l-28.688-26.953H67.343l-28.688,26.953Z" style="fill: #000001;"/>
              </g>
              <g>
                <rect x="38.158" y="269.832" width="244.832" height="62.64" style="fill: #fffef0;"/>
                <path d="M282.99,332.669H38.158c-.109,0-.197-.088-.197-.197v-62.64c0-.109.088-.197.197-.197h244.832c.109,0,.197.088.197.197v62.64c0,.109-.088.197-.197.197ZM38.355,332.275h244.438v-62.246H38.355v62.246Z" style="fill: #000001;"/>
              </g>
              <g>
                <rect x="38.158" y="314.675" width="244.832" height="17.797" style="fill: #dbdad1;"/>
                <path d="M282.99,332.669H38.158c-.109,0-.197-.088-.197-.197v-17.797c0-.109.088-.197.197-.197h244.832c.109,0,.197.088.197.197v17.797c0,.109-.088.197-.197.197ZM38.355,332.275h244.438v-17.403H38.355v17.403Z" style="fill: #000001;"/>
              </g>
              <rect x="38.158" y="304.882" width="244.832" height="2.13" style="fill: #a0a3a5; mix-blend-mode: multiply;"/>
            </g>
            <g>
              <g>
                <polygon points="223.851 237.066 171.171 237.066 149.978 237.066 97.297 237.066 77.558 259.287 134.038 259.287 187.11 259.287 243.59 259.287 223.851 237.066" style="fill: #dbdad1;"/>
                <path d="M243.59,259.483H77.558c-.078,0-.148-.045-.18-.116-.032-.071-.019-.153.032-.211l19.739-22.22c.037-.042.091-.066.147-.066h126.554c.056,0,.11.024.147.066l19.739,22.22c.051.058.064.141.032.211-.032.071-.102.116-.179.116ZM77.996,259.09h165.156l-19.389-21.827h-126.378l-19.389,21.827Z" style="fill: #000001;"/>
              </g>
              <g>
                <rect x="77.558" y="259.287" width="166.032" height="7.121" style="fill: #c2c2bb;"/>
                <path d="M243.59,266.604H77.558c-.109,0-.197-.088-.197-.197v-7.121c0-.109.088-.197.197-.197h166.032c.109,0,.197.088.197.197v7.121c0,.109-.088.197-.197.197ZM77.755,266.211h165.638v-6.727H77.755v6.727Z" style="fill: #000001;"/>
              </g>
            </g>
            <g>
              <path d="M199.053,249.001c0,3.515-17.475,5.086-39.032,5.086s-39.032-1.572-39.032-5.086,17.475-6.364,39.032-6.364,39.032,2.849,39.032,6.364Z" style="fill: #cbcdce; mix-blend-mode: multiply;"/>
              <g>
                <path d="M124.863,229.33v18.701c0,2.065,15.934,3.739,35.588,3.739s35.588-1.674,35.588-3.739v-18.128l-71.177-.573Z" style="fill: #c2c2bb;"/>
                <path d="M160.452,251.967c-17.348,0-35.785-1.38-35.785-3.936v-18.701c0-.053.021-.103.058-.139.037-.037.087-.072.14-.057l71.177.573c.108,0,.195.089.195.197v18.127c0,2.557-18.437,3.936-35.785,3.936ZM125.06,229.528v18.502c0,1.676,14.535,3.543,35.392,3.543s35.391-1.867,35.391-3.543v-17.932l-70.783-.57Z" style="fill: #000001;"/>
              </g>
              <path d="M124.863,220.046v18.701c0,2.065,15.934,3.739,35.588,3.739s35.588-1.674,35.588-3.739v-18.128l-71.177-.573Z" style="fill: #cbcdce; mix-blend-mode: multiply;"/>
              <path d="M126.435,235.863v11.576s10.889,3.668,28.31,2.98c0,0-22.006-2.063-23.382-5.158v-8.94l-4.928-.458Z" style="fill: #fffef0; mix-blend-mode: screen; opacity: .78;"/>
            </g>
            <g>
              <g>
                <rect x="49.783" y="200.379" width="221.582" height="32.019" style="fill: #dbdad1;"/>
                <path d="M271.365,232.595H49.783c-.109,0-.197-.088-.197-.197v-32.019c0-.109.088-.197.197-.197h221.582c.109,0,.197.088.197.197v32.019c0,.109-.088.197-.197.197ZM49.98,232.201h221.189v-31.625H49.98v31.625Z" style="fill: #000001;"/>
              </g>
              <rect x="49.783" y="200.379" width="221.582" height="23.892" style="fill: #cbcdce; mix-blend-mode: multiply;"/>
              <g>
                <rect x="25.668" y="5.817" width="269.812" height="215.744" style="fill: #fffef0;"/>
                <path d="M295.48,221.759H25.668c-.109,0-.197-.088-.197-.197V5.817c0-.109.088-.197.197-.197h269.812c.109,0,.197.088.197.197v215.744c0,.109-.088.197-.197.197ZM25.865,221.365h269.419V6.014H25.865v215.351Z" style="fill: #000001;"/>
              </g>
              <g>
                <rect x="47.187" y="27" width="226.774" height="173.38" style="fill: #a1a3a5;"/>
                <path d="M273.961,200.576H47.187c-.109,0-.197-.088-.197-.197V27c0-.109.088-.197.197-.197h226.774c.109,0,.197.088.197.197v173.38c0,.109-.088.197-.197.197ZM47.384,200.183h226.38V27.196H47.384v172.986Z" style="fill: #000001;"/>
              </g>
              <rect x="51.678" y="30.433" width="217.793" height="166.513" style="fill: #484b4c;"/>
              <g>
                <rect x="266.06" y="206.803" width="13.58" height="11.045" style="fill: #fffef0;"/>
                <path d="M279.64,218.044h-13.58c-.109,0-.197-.088-.197-.197v-11.045c0-.109.088-.197.197-.197h13.58c.109,0,.197.088.197.197v11.045c0,.109-.088.197-.197.197ZM266.257,217.651h13.187v-10.651h-13.187v10.651Z" style="fill: #000001;"/>
              </g>
            </g>
            <g>
              <rect x="160.022" y="280.594" width="54.452" height="4.701" style="fill: #cbcdce; mix-blend-mode: multiply;"/>
              <rect x="162.346" y="281.769" width="49.803" height="2.35" style="mix-blend-mode: multiply;"/>
            </g>
            <g>
              <rect x="218.23" y="280.594" width="54.452" height="4.701" style="fill: #cbcdce; mix-blend-mode: multiply;"/>
              <rect x="220.554" y="281.769" width="49.803" height="2.35" style="mix-blend-mode: multiply;"/>
            </g>
            <g>
              <path d="M54.406,322.771c0,2.668-2.163,4.831-4.831,4.831s-4.832-2.163-4.832-4.831,2.163-4.831,4.832-4.831,4.831,2.163,4.831,4.831Z" style="fill: #fffef0;"/>
              <path d="M49.575,327.8c-2.773,0-5.028-2.256-5.028-5.028s2.256-5.029,5.028-5.029,5.028,2.256,5.028,5.029-2.256,5.028-5.028,5.028ZM49.575,318.136c-2.556,0-4.635,2.079-4.635,4.635s2.079,4.635,4.635,4.635,4.635-2.079,4.635-4.635-2.079-4.635-4.635-4.635Z" style="fill: #000001;"/>
            </g>
            <g>
              <path d="M71.77,322.771c0,2.668-2.163,4.831-4.831,4.831s-4.831-2.163-4.831-4.831,2.163-4.831,4.831-4.831,4.831,2.163,4.831,4.831Z" style="fill: #fffef0;"/>
              <path d="M66.939,327.8c-2.773,0-5.028-2.256-5.028-5.028s2.256-5.029,5.028-5.029,5.028,2.256,5.028,5.029-2.256,5.028-5.028,5.028ZM66.939,318.136c-2.556,0-4.635,2.079-4.635,4.635s2.079,4.635,4.635,4.635,4.635-2.079,4.635-4.635-2.079-4.635-4.635-4.635Z" style="fill: #000001;"/>
            </g>
          </g>
          <g>
            <g>
              <g>
                <polygon points="281.722 330.49 42.97 330.49 5.732 361.829 318.96 361.829 281.722 330.49" style="fill: #fffef0;"/>
                <path d="M318.96,362.026H5.732c-.083,0-.156-.052-.185-.129-.028-.078-.005-.165.058-.218l37.238-31.339c.035-.03.08-.046.127-.046h238.752c.046,0,.091.017.127.046l37.238,31.339c.063.053.086.14.058.218-.028.078-.102.129-.185.129ZM6.271,361.632h312.149l-36.771-30.946H43.042l-36.771,30.946Z" style="fill: #000001;"/>
              </g>
              <g>
                <rect x="5.732" y="361.829" width="313.228" height="7.051" style="fill: #dbdad1;"/>
                <path d="M318.96,369.077H5.732c-.109,0-.197-.088-.197-.197v-7.051c0-.109.088-.197.197-.197h313.228c.108,0,.197.088.197.197v7.051c0,.109-.088.197-.197.197ZM5.929,368.683h312.834v-6.658H5.929v6.658Z" style="fill: #000001;"/>
              </g>
            </g>
            <g>
              <polygon points="47.994 352.097 42.888 357.84 55.076 357.84 59.571 352.097 47.994 352.097" style="fill: #dbdad1;"/>
              <path d="M55.076,358.037h-12.187c-.077,0-.148-.045-.179-.116-.032-.071-.019-.153.033-.211l5.106-5.743c.037-.042.091-.066.147-.066h11.577c.075,0,.144.043.177.111.033.068.024.148-.022.208l-4.496,5.743c-.037.048-.094.075-.155.075ZM43.327,357.643h11.653l4.188-5.35h-11.085l-4.756,5.35Z" style="fill: #000001;"/>
            </g>
            <g>
              <polygon points="35.428 352.097 29.709 357.84 41.835 357.84 46.941 352.097 35.428 352.097" style="fill: #dbdad1;"/>
              <path d="M41.835,358.037h-12.126c-.08,0-.151-.048-.182-.121-.03-.073-.014-.158.042-.214l5.719-5.743c.037-.037.087-.058.139-.058h11.513c.077,0,.148.045.179.116.032.071.019.153-.032.211l-5.106,5.743c-.037.042-.091.066-.147.066ZM30.183,357.643h11.564l4.756-5.35h-10.993l-5.327,5.35Z" style="fill: #000001;"/>
            </g>
            <g>
              <polygon points="60.571 352.097 56.075 357.84 68.319 357.84 72.207 352.097 60.571 352.097" style="fill: #dbdad1;"/>
              <path d="M68.319,358.037h-12.244c-.075,0-.144-.043-.177-.111-.033-.068-.024-.148.022-.207l4.496-5.743c.037-.048.094-.075.155-.075h11.636c.073,0,.14.04.174.105.034.064.03.142-.011.203l-3.888,5.743c-.037.054-.098.086-.163.086ZM56.479,357.643h11.736l3.622-5.35h-11.17l-4.188,5.35Z" style="fill: #000001;"/>
            </g>
            <g>
              <polygon points="112.66 345.172 114.6 339.822 104.097 339.822 101.599 345.172 112.66 345.172" style="fill: #dbdad1;"/>
              <path d="M112.66,345.369h-11.061c-.067,0-.13-.034-.166-.091-.036-.057-.041-.128-.012-.189l2.498-5.35c.032-.069.102-.113.178-.113h10.503c.064,0,.124.031.161.084.037.053.046.12.024.18l-1.94,5.35c-.028.078-.102.129-.185.129ZM101.908,344.975h10.614l1.797-4.956h-10.097l-2.315,4.956Z" style="fill: #000001;"/>
            </g>
            <g>
              <polygon points="136.543 345.172 137.375 339.822 126.796 339.822 125.411 345.172 136.543 345.172" style="fill: #dbdad1;"/>
              <path d="M136.543,345.369h-11.132c-.061,0-.118-.028-.156-.076-.037-.048-.05-.111-.035-.169l1.385-5.35c.022-.087.101-.148.19-.148h10.579c.057,0,.112.025.149.069.037.044.054.101.045.158l-.832,5.35c-.015.096-.097.166-.194.166ZM125.665,344.975h10.709l.771-4.956h-10.197l-1.283,4.956Z" style="fill: #000001;"/>
            </g>
            <g>
              <polygon points="124.597 345.172 125.982 339.822 115.437 339.822 113.497 345.172 124.597 345.172" style="fill: #dbdad1;"/>
              <path d="M124.597,345.369h-11.1c-.064,0-.124-.031-.161-.084-.037-.053-.046-.12-.024-.18l1.94-5.35c.028-.078.102-.129.185-.129h10.545c.061,0,.118.028.156.076.037.048.05.111.035.169l-1.385,5.35c-.022.087-.101.148-.19.148ZM113.778,344.975h10.667l1.283-4.956h-10.153l-1.797,4.956Z" style="fill: #000001;"/>
            </g>
            <g>
              <polygon points="88.808 345.172 91.867 339.822 81.467 339.822 77.846 345.172 88.808 345.172" style="fill: #dbdad1;"/>
              <path d="M88.808,345.369h-10.963c-.073,0-.14-.04-.174-.105-.034-.064-.03-.142.011-.202l3.622-5.35c.037-.054.098-.086.163-.086h10.399c.07,0,.135.037.17.098.035.061.035.136,0,.196l-3.059,5.35c-.035.061-.1.099-.171.099ZM78.216,344.975h10.478l2.834-4.956h-9.956l-3.355,4.956Z" style="fill: #000001;"/>
            </g>
            <g>
              <polygon points="100.73 345.172 103.228 339.822 92.773 339.822 89.715 345.172 100.73 345.172" style="fill: #dbdad1;"/>
              <path d="M100.73,345.369h-11.015c-.07,0-.135-.037-.17-.098-.035-.061-.035-.136,0-.196l3.059-5.35c.035-.062.1-.099.171-.099h10.455c.067,0,.13.034.166.091.036.057.041.128.012.189l-2.498,5.35c-.032.069-.102.113-.178.113ZM90.054,344.975h10.551l2.314-4.956h-10.032l-2.834,4.956Z" style="fill: #000001;"/>
            </g>
            <g>
              <polygon points="186.96 352.097 188.414 357.84 200.863 357.84 198.829 352.097 186.96 352.097" style="fill: #dbdad1;"/>
              <path d="M200.863,358.037h-12.449c-.09,0-.169-.061-.191-.148l-1.454-5.743c-.015-.059-.002-.121.036-.169.037-.048.094-.076.155-.076h11.869c.083,0,.158.053.185.131l2.034,5.743c.021.06.012.127-.025.179-.037.052-.097.083-.161.083ZM188.567,357.643h12.017l-1.895-5.35h-11.477l1.354,5.35Z" style="fill: #000001;"/>
            </g>
            <g>
              <polygon points="214.99 357.84 224.123 357.84 221.263 352.097 212.378 352.097 214.99 357.84" style="fill: #dbdad1;"/>
              <path d="M224.123,358.037h-9.133c-.077,0-.147-.045-.179-.115l-2.611-5.743c-.028-.061-.022-.132.014-.188.036-.056.099-.09.166-.09h8.885c.075,0,.143.042.176.109l2.86,5.743c.03.061.027.133-.009.191-.036.058-.099.093-.167.093ZM215.117,357.643h8.689l-2.664-5.35h-8.458l2.433,5.35Z" style="fill: #000001;"/>
            </g>
            <g>
              <polygon points="186.148 352.097 182.842 352.097 174.268 352.097 173.472 352.097 161.587 352.097 160.799 352.097 148.919 352.097 148.131 352.097 136.263 352.097 135.466 352.097 123.618 352.097 122.805 352.097 110.986 352.097 110.149 352.097 98.365 352.097 97.497 352.097 85.756 352.097 73.158 352.097 69.27 357.84 82.472 357.84 94.814 357.84 95.683 357.84 108.066 357.84 108.903 357.84 121.318 357.84 122.131 357.84 134.573 357.84 135.369 357.84 147.828 357.84 148.616 357.84 161.085 357.84 161.873 357.84 174.343 357.84 175.139 357.84 183.853 357.84 187.602 357.84 186.148 352.097" style="fill: #dbdad1;"/>
              <path d="M187.602,358.037h-118.333c-.073,0-.14-.04-.174-.104-.034-.064-.03-.142.011-.203l3.889-5.743c.037-.054.098-.086.163-.086h112.99c.09,0,.169.061.191.148l1.454,5.743c.015.059.002.121-.035.169-.037.048-.095.076-.155.076ZM69.64,357.643h117.709l-1.354-5.35h-112.733l-3.622,5.35Z" style="fill: #000001;"/>
            </g>
            <g>
              <polygon points="199.664 352.097 201.698 357.84 214.125 357.84 211.514 352.097 199.664 352.097" style="fill: #dbdad1;"/>
              <path d="M214.125,358.037h-12.427c-.083,0-.158-.053-.185-.131l-2.034-5.743c-.021-.06-.012-.127.025-.179.037-.052.097-.083.161-.083h11.85c.077,0,.147.045.179.115l2.612,5.743c.028.061.022.132-.014.188-.036.056-.099.09-.165.09ZM201.837,357.643h11.983l-2.433-5.35h-11.445l1.895,5.35Z" style="fill: #000001;"/>
            </g>
            <g>
              <polygon points="24.302 352.097 17.857 357.84 28.598 357.84 34.317 352.097 24.302 352.097" style="fill: #dbdad1;"/>
              <path d="M28.598,358.037h-10.741c-.082,0-.155-.05-.184-.127-.029-.076-.008-.163.053-.217l6.445-5.743c.036-.032.083-.05.131-.05h10.015c.08,0,.151.048.182.121.03.073.014.158-.042.214l-5.719,5.743c-.037.037-.087.058-.139.058ZM18.374,357.643h10.143l5.327-5.35h-9.466l-6.004,5.35Z" style="fill: #000001;"/>
            </g>
            <g>
              <polygon points="40.428 345.959 31.189 345.959 25.186 351.31 35.101 351.31 40.428 345.959" style="fill: #dbdad1;"/>
              <path d="M35.101,351.506h-9.915c-.082,0-.155-.05-.184-.127-.029-.076-.008-.163.053-.217l6.004-5.351c.036-.032.083-.05.131-.05h9.239c.08,0,.151.048.182.121.03.073.014.158-.042.214l-5.327,5.351c-.037.037-.087.058-.14.058ZM25.702,351.113h9.317l4.935-4.957h-8.69l-5.562,4.957Z" style="fill: #000001;"/>
            </g>
            <g>
              <polygon points="148.819 339.035 149.021 335.203 138.89 335.203 138.294 339.035 148.819 339.035" style="fill: #dbdad1;"/>
              <path d="M148.819,339.232h-10.525c-.057,0-.112-.025-.149-.069-.037-.044-.054-.101-.045-.158l.596-3.831c.015-.096.097-.166.194-.166h10.13c.054,0,.106.022.143.061s.056.092.054.146l-.202,3.831c-.005.104-.092.186-.197.186ZM138.524,338.838h10.108l.181-3.438h-9.755l-.535,3.438Z" style="fill: #000001;"/>
            </g>
            <g>
              <polygon points="171.491 339.035 170.91 335.203 160.747 335.203 160.938 339.035 171.491 339.035" style="fill: #dbdad1;"/>
              <path d="M171.491,339.232h-10.553c-.105,0-.191-.082-.197-.187l-.19-3.831c-.003-.054.017-.106.054-.145s.089-.061.143-.061h10.162c.097,0,.18.071.195.167l.581,3.831c.009.057-.008.114-.045.158-.037.043-.092.068-.149.068ZM161.125,338.838h10.137l-.521-3.438h-9.787l.171,3.438Z" style="fill: #000001;"/>
            </g>
            <g>
              <polygon points="160.15 339.035 159.959 335.203 149.809 335.203 149.607 339.035 160.15 339.035" style="fill: #dbdad1;"/>
              <path d="M160.15,339.232h-10.543c-.054,0-.106-.022-.143-.061-.037-.039-.057-.092-.054-.146l.202-3.831c.006-.104.092-.186.197-.186h10.151c.105,0,.191.082.197.187l.191,3.831c.003.054-.017.106-.054.145s-.089.061-.143.061ZM149.814,338.838h10.129l-.171-3.438h-9.777l-.181,3.438Z" style="fill: #000001;"/>
            </g>
            <g>
              <polygon points="182.842 339.035 181.872 335.203 171.706 335.203 172.287 339.035 182.842 339.035" style="fill: #dbdad1;"/>
              <path d="M182.842,339.232h-10.555c-.097,0-.18-.071-.194-.167l-.581-3.831c-.009-.057.008-.114.045-.158.037-.043.092-.068.149-.068h10.166c.09,0,.169.061.191.148l.97,3.831c.015.059.002.121-.035.169-.037.048-.095.076-.155.076ZM172.456,338.838h10.133l-.87-3.438h-9.784l.521,3.438Z" style="fill: #000001;"/>
            </g>
            <g>
              <polygon points="205.575 339.035 203.833 335.203 193.682 335.203 195.038 339.035 205.575 339.035" style="fill: #dbdad1;"/>
              <path d="M205.575,339.232h-10.537c-.083,0-.158-.053-.185-.131l-1.357-3.831c-.021-.06-.012-.127.025-.179.037-.052.097-.083.161-.083h10.151c.077,0,.147.045.179.115l1.742,3.831c.028.061.023.132-.014.188-.036.056-.099.09-.165.09ZM195.178,338.838h10.092l-1.563-3.438h-9.746l1.218,3.438Z" style="fill: #000001;"/>
            </g>
            <g>
              <polygon points="209.588 345.959 212.021 351.31 220.871 351.31 218.207 345.959 209.588 345.959" style="fill: #dbdad1;"/>
              <path d="M220.871,351.506h-8.851c-.077,0-.147-.045-.179-.115l-2.433-5.351c-.028-.061-.022-.132.014-.188.036-.056.099-.09.165-.09h8.619c.075,0,.143.042.176.109l2.664,5.351c.03.061.027.133-.009.191-.036.058-.099.093-.167.093ZM212.147,351.113h8.406l-2.468-4.957h-8.192l2.254,4.957Z" style="fill: #000001;"/>
            </g>
            <g>
              <polygon points="206.798 339.822 209.23 345.172 217.815 345.172 215.151 339.822 206.798 339.822" style="fill: #dbdad1;"/>
              <path d="M217.815,345.369h-8.585c-.077,0-.147-.045-.179-.115l-2.432-5.35c-.028-.061-.022-.132.014-.188.036-.056.099-.09.165-.09h8.354c.075,0,.143.042.176.109l2.664,5.35c.03.061.027.133-.009.191-.036.058-.099.093-.167.093ZM209.357,344.975h8.141l-2.468-4.956h-7.926l2.254,4.956Z" style="fill: #000001;"/>
            </g>
            <g>
              <polygon points="214.759 339.035 212.851 335.203 204.697 335.203 206.44 339.035 214.759 339.035" style="fill: #dbdad1;"/>
              <path d="M214.759,339.232h-8.32c-.077,0-.147-.045-.179-.115l-1.742-3.831c-.028-.061-.022-.132.014-.188.036-.056.099-.09.165-.09h8.154c.075,0,.143.042.176.109l1.908,3.831c.03.061.027.133-.009.191-.036.058-.099.093-.167.093ZM206.566,338.838h7.875l-1.712-3.438h-7.726l1.563,3.438Z" style="fill: #000001;"/>
            </g>
            <g>
              <polygon points="194.203 339.035 192.846 335.203 182.684 335.203 183.654 339.035 194.203 339.035" style="fill: #dbdad1;"/>
              <path d="M194.203,339.232h-10.549c-.09,0-.169-.061-.191-.148l-.97-3.831c-.015-.059-.002-.121.036-.169.037-.048.095-.076.155-.076h10.162c.083,0,.158.053.185.131l1.357,3.831c.021.06.012.127-.025.179-.037.052-.097.083-.161.083ZM183.807,338.838h10.118l-1.218-3.438h-9.77l.87,3.438Z" style="fill: #000001;"/>
            </g>
            <g>
              <polygon points="51.137 335.203 43.259 335.203 38.959 339.035 47.322 339.035 51.137 335.203" style="fill: #dbdad1;"/>
              <path d="M47.322,339.232h-8.363c-.082,0-.155-.05-.184-.127-.029-.076-.008-.162.053-.217l4.3-3.831c.036-.032.083-.05.131-.05h7.879c.08,0,.151.048.182.121.03.073.014.158-.042.214l-3.815,3.831c-.037.037-.087.058-.14.058ZM39.476,338.838h7.765l3.423-3.438h-7.33l-3.858,3.438Z" style="fill: #000001;"/>
            </g>
            <g>
              <polygon points="137.497 339.035 138.093 335.203 127.991 335.203 126.999 339.035 137.497 339.035" style="fill: #dbdad1;"/>
              <path d="M137.497,339.232h-10.498c-.061,0-.118-.028-.156-.077-.037-.048-.05-.111-.035-.169l.992-3.831c.023-.087.101-.147.19-.147h10.102c.058,0,.112.025.15.069.037.044.054.101.045.158l-.596,3.831c-.015.096-.097.166-.194.166ZM127.254,338.838h10.075l.535-3.438h-9.72l-.89,3.438Z" style="fill: #000001;"/>
            </g>
            <g>
              <polygon points="58.552 339.035 61.958 335.203 52.248 335.203 48.433 339.035 58.552 339.035" style="fill: #dbdad1;"/>
              <path d="M58.552,339.232h-10.119c-.079,0-.151-.048-.182-.121-.03-.073-.014-.158.042-.214l3.815-3.831c.037-.037.087-.058.14-.058h9.71c.077,0,.148.045.179.116s.019.154-.033.211l-3.406,3.831c-.037.042-.091.066-.147.066ZM48.907,338.838h9.557l3.056-3.438h-9.19l-3.423,3.438Z" style="fill: #000001;"/>
            </g>
            <g>
              <polygon points="46.538 339.822 38.076 339.822 32.073 345.172 41.212 345.172 46.538 339.822" style="fill: #dbdad1;"/>
              <path d="M41.212,345.369h-9.139c-.082,0-.155-.05-.184-.127-.029-.076-.008-.163.053-.217l6.003-5.35c.036-.032.083-.05.131-.05h8.463c.08,0,.151.048.182.121.03.073.014.158-.042.214l-5.327,5.35c-.037.037-.087.058-.139.058ZM32.589,344.975h8.541l4.935-4.956h-7.914l-5.562,4.956Z" style="fill: #000001;"/>
            </g>
            <g>
              <polygon points="69.795 339.035 72.794 335.203 63.011 335.203 59.605 339.035 69.795 339.035" style="fill: #dbdad1;"/>
              <path d="M69.795,339.232h-10.19c-.078,0-.148-.045-.18-.116-.032-.071-.019-.153.033-.211l3.406-3.831c.037-.042.091-.066.147-.066h9.782c.075,0,.144.043.177.111.033.068.024.148-.022.207l-2.999,3.831c-.037.048-.094.075-.155.075ZM60.043,338.838h9.655l2.691-3.438h-9.29l-3.056,3.438Z" style="fill: #000001;"/>
            </g>
            <g>
              <polygon points="126.186 339.035 127.178 335.203 117.113 335.203 115.723 339.035 126.186 339.035" style="fill: #dbdad1;"/>
              <path d="M126.186,339.232h-10.463c-.064,0-.124-.031-.161-.084-.037-.053-.046-.12-.024-.18l1.39-3.831c.028-.078.102-.129.185-.129h10.066c.061,0,.118.028.156.076.037.048.05.111.035.169l-.992,3.831c-.023.087-.101.148-.19.148ZM116.004,338.838h10.03l.89-3.438h-9.673l-1.247,3.438Z" style="fill: #000001;"/>
            </g>
            <g>
              <polygon points="81.05 339.035 83.644 335.203 73.793 335.203 70.794 339.035 81.05 339.035" style="fill: #dbdad1;"/>
              <path d="M81.05,339.232h-10.256c-.075,0-.144-.043-.177-.111-.033-.068-.024-.148.022-.208l2.999-3.831c.037-.048.094-.075.155-.075h9.85c.073,0,.14.04.174.104.034.064.03.142-.011.202l-2.594,3.831c-.037.054-.098.086-.163.086ZM71.198,338.838h9.747l2.328-3.438h-9.383l-2.691,3.438Z" style="fill: #000001;"/>
            </g>
            <g>
              <polygon points="103.596 339.035 105.385 335.203 95.414 335.203 93.223 339.035 103.596 339.035" style="fill: #dbdad1;"/>
              <path d="M103.596,339.232h-10.372c-.07,0-.135-.037-.17-.098-.035-.061-.035-.136,0-.196l2.191-3.831c.035-.061.1-.099.171-.099h9.971c.067,0,.13.034.166.091.036.057.041.128.012.189l-1.789,3.831c-.032.069-.102.113-.178.113ZM93.563,338.838h9.908l1.605-3.438h-9.548l-1.966,3.438Z" style="fill: #000001;"/>
            </g>
            <g>
              <polygon points="92.317 339.035 94.508 335.203 84.594 335.203 82 339.035 92.317 339.035" style="fill: #dbdad1;"/>
              <path d="M92.317,339.232h-10.317c-.073,0-.14-.04-.174-.105-.034-.064-.03-.142.011-.202l2.594-3.831c.037-.054.098-.086.163-.086h9.913c.07,0,.135.037.17.098.035.061.035.136,0,.196l-2.191,3.831c-.035.061-.1.099-.171.099ZM82.371,338.838h9.832l1.966-3.438h-9.47l-2.328,3.438Z" style="fill: #000001;"/>
            </g>
            <g>
              <polygon points="114.886 339.035 116.275 335.203 106.254 335.203 104.464 339.035 114.886 339.035" style="fill: #dbdad1;"/>
              <path d="M114.886,339.232h-10.421c-.067,0-.13-.034-.166-.091-.036-.057-.041-.128-.012-.189l1.789-3.831c.032-.069.102-.113.178-.113h10.022c.064,0,.124.031.161.084.037.053.046.12.024.18l-1.39,3.831c-.028.077-.102.129-.185.129ZM104.774,338.838h9.974l1.247-3.438h-9.615l-1.606,3.438Z" style="fill: #000001;"/>
            </g>
            <g>
              <polygon points="184.396 345.172 183.041 339.822 172.407 339.822 173.218 345.172 184.396 345.172" style="fill: #dbdad1;"/>
              <path d="M184.396,345.369h-11.178c-.097,0-.18-.071-.195-.167l-.811-5.35c-.009-.057.008-.115.045-.158.037-.043.092-.068.149-.068h10.635c.09,0,.169.061.191.148l1.354,5.35c.015.059.002.121-.036.169-.037.048-.094.076-.155.076ZM173.387,344.975h10.756l-1.255-4.956h-10.253l.751,4.956Z" style="fill: #000001;"/>
            </g>
            <g>
              <polygon points="196.377 345.172 194.482 339.822 183.853 339.822 185.207 345.172 196.377 345.172" style="fill: #dbdad1;"/>
              <path d="M196.377,345.369h-11.169c-.09,0-.169-.061-.191-.148l-1.354-5.35c-.015-.059-.002-.121.035-.169.037-.048.095-.076.155-.076h10.629c.083,0,.158.053.185.131l1.895,5.35c.021.06.012.127-.025.179-.037.052-.097.083-.161.083ZM185.36,344.975h10.738l-1.755-4.956h-10.237l1.255,4.956Z" style="fill: #000001;"/>
            </g>
            <g>
              <polygon points="171.61 339.822 160.977 339.822 161.243 345.172 172.422 345.172 171.61 339.822" style="fill: #dbdad1;"/>
              <path d="M172.422,345.369h-11.179c-.105,0-.191-.082-.197-.187l-.266-5.35c-.003-.054.017-.106.054-.145s.089-.061.142-.061h10.633c.097,0,.18.071.194.167l.811,5.35c.009.057-.008.114-.045.158-.037.043-.092.068-.149.068ZM161.43,344.975h10.763l-.752-4.956h-10.257l.246,4.956Z" style="fill: #000001;"/>
            </g>
            <g>
              <polygon points="160.189 339.822 149.565 339.822 149.284 345.172 160.455 345.172 160.189 339.822" style="fill: #dbdad1;"/>
              <path d="M160.455,345.369h-11.171c-.054,0-.106-.022-.143-.061-.037-.039-.056-.092-.054-.146l.282-5.35c.006-.104.092-.186.197-.186h10.624c.105,0,.191.082.197.187l.266,5.35c.003.054-.017.106-.054.145s-.089.061-.143.061ZM149.491,344.975h10.757l-.247-4.956h-10.25l-.261,4.956Z" style="fill: #000001;"/>
            </g>
            <g>
              <polygon points="149.242 345.959 148.96 351.31 160.76 351.31 160.494 345.959 149.242 345.959" style="fill: #dbdad1;"/>
              <path d="M160.76,351.506h-11.8c-.054,0-.106-.022-.143-.061s-.057-.092-.054-.146l.282-5.35c.006-.105.092-.186.197-.186h11.252c.105,0,.191.082.197.187l.266,5.351c.003.054-.017.106-.054.145-.037.039-.089.061-.143.061ZM149.168,351.113h11.386l-.246-4.957h-10.878l-.261,4.957Z" style="fill: #000001;"/>
            </g>
            <g>
              <polygon points="173.337 345.959 174.149 351.31 185.949 351.31 184.595 345.959 173.337 345.959" style="fill: #dbdad1;"/>
              <path d="M185.949,351.506h-11.8c-.097,0-.18-.071-.194-.167l-.811-5.351c-.009-.057.008-.114.045-.158.037-.043.092-.068.149-.068h11.258c.09,0,.169.061.191.148l1.354,5.351c.015.059.002.121-.035.169-.037.048-.094.076-.155.076ZM174.318,351.113h11.378l-1.255-4.957h-10.876l.752,4.957Z" style="fill: #000001;"/>
            </g>
            <g>
              <polygon points="161.282 345.959 161.548 351.31 173.352 351.31 172.541 345.959 161.282 345.959" style="fill: #dbdad1;"/>
              <path d="M173.352,351.506h-11.804c-.105,0-.192-.082-.197-.187l-.266-5.351c-.003-.054.017-.106.054-.145.037-.039.089-.061.143-.061h11.259c.097,0,.18.071.195.167l.811,5.351c.009.057-.008.114-.045.158-.037.044-.092.068-.149.068ZM161.735,351.113h11.388l-.751-4.957h-10.883l.246,4.957Z" style="fill: #000001;"/>
            </g>
            <g>
              <polygon points="76.895 345.172 80.517 339.822 70.178 339.822 65.991 345.172 76.895 345.172" style="fill: #dbdad1;"/>
              <path d="M76.895,345.369h-10.904c-.075,0-.144-.043-.177-.111-.033-.068-.024-.148.022-.207l4.187-5.35c.037-.048.094-.075.155-.075h10.339c.073,0,.14.04.174.104.034.064.03.142-.011.203l-3.622,5.35c-.037.054-.098.086-.163.086ZM66.395,344.975h10.396l3.355-4.956h-9.872l-3.879,4.956Z" style="fill: #000001;"/>
            </g>
            <g>
              <polygon points="197.49 345.959 199.385 351.31 211.156 351.31 208.723 345.959 197.49 345.959" style="fill: #dbdad1;"/>
              <path d="M211.156,351.506h-11.771c-.083,0-.157-.053-.185-.131l-1.894-5.351c-.021-.06-.012-.127.025-.179.037-.052.097-.083.161-.083h11.233c.077,0,.147.045.179.115l2.432,5.351c.028.061.023.132-.014.188-.036.056-.099.09-.165.09ZM199.524,351.113h11.326l-2.254-4.957h-10.828l1.755,4.957Z" style="fill: #000001;"/>
            </g>
            <g>
              <polygon points="185.407 345.959 186.761 351.31 198.55 351.31 196.655 345.959 185.407 345.959" style="fill: #dbdad1;"/>
              <path d="M198.55,351.506h-11.789c-.09,0-.169-.061-.191-.148l-1.354-5.351c-.015-.059-.002-.121.036-.169.037-.048.094-.076.155-.076h11.249c.084,0,.158.053.185.131l1.895,5.351c.021.06.012.127-.025.179-.037.052-.097.083-.161.083ZM186.914,351.113h11.358l-1.756-4.957h-10.857l1.255,4.957Z" style="fill: #000001;"/>
            </g>
            <g>
              <polygon points="137.34 345.172 148.496 345.172 148.777 339.822 138.172 339.822 137.34 345.172" style="fill: #dbdad1;"/>
              <path d="M148.495,345.369h-11.156c-.057,0-.112-.025-.149-.069-.037-.044-.054-.101-.045-.158l.832-5.35c.015-.096.097-.166.195-.166h10.606c.054,0,.106.022.143.061.037.039.056.092.054.146l-.282,5.35c-.006.104-.092.186-.197.186ZM137.569,344.975h10.739l.261-4.956h-10.23l-.771,4.956Z" style="fill: #000001;"/>
            </g>
            <g>
              <polygon points="208.365 345.172 205.933 339.822 195.317 339.822 197.212 345.172 208.365 345.172" style="fill: #dbdad1;"/>
              <path d="M208.365,345.369h-11.154c-.083,0-.158-.053-.185-.131l-1.895-5.35c-.021-.06-.012-.127.025-.179.037-.052.097-.083.161-.083h10.616c.077,0,.147.045.179.115l2.432,5.35c.028.061.023.132-.014.188-.036.056-.099.09-.165.09ZM197.351,344.975h10.709l-2.253-4.956h-10.211l1.755,4.956Z" style="fill: #000001;"/>
            </g>
            <g>
              <polygon points="53.45 345.959 48.694 351.31 60.187 351.31 64.375 345.959 53.45 345.959" style="fill: #dbdad1;"/>
              <path d="M60.187,351.506h-11.493c-.077,0-.148-.045-.18-.116-.032-.071-.019-.153.033-.211l4.756-5.351c.037-.042.091-.066.147-.066h10.925c.075,0,.144.043.177.111.033.068.024.148-.022.208l-4.188,5.351c-.037.048-.094.075-.155.075ZM49.132,351.113h10.959l3.88-4.957h-10.433l-4.406,4.957Z" style="fill: #000001;"/>
            </g>
            <g>
              <polygon points="65.374 345.959 61.187 351.31 72.74 351.31 76.362 345.959 65.374 345.959" style="fill: #dbdad1;"/>
              <path d="M72.74,351.506h-11.553c-.075,0-.144-.043-.177-.111-.033-.068-.024-.148.022-.207l4.188-5.351c.037-.048.094-.075.155-.075h10.988c.073,0,.14.04.174.104.034.064.03.142-.011.202l-3.622,5.351c-.037.054-.098.086-.163.086ZM61.591,351.113h11.045l3.356-4.957h-10.521l-3.88,4.957Z" style="fill: #000001;"/>
            </g>
            <g>
              <polygon points="57.852 339.822 47.649 339.822 42.323 345.172 53.097 345.172 57.852 339.822" style="fill: #dbdad1;"/>
              <path d="M53.097,345.369h-10.774c-.08,0-.151-.048-.182-.121-.03-.073-.014-.158.042-.214l5.327-5.35c.037-.037.087-.058.14-.058h10.203c.078,0,.148.045.18.116s.019.153-.032.211l-4.756,5.35c-.037.042-.091.066-.147.066ZM42.796,344.975h10.212l4.406-4.956h-9.683l-4.935,4.956Z" style="fill: #000001;"/>
            </g>
            <g>
              <polygon points="41.539 345.959 36.212 351.31 47.641 351.31 52.397 345.959 41.539 345.959" style="fill: #dbdad1;"/>
              <path d="M47.641,351.506h-11.429c-.08,0-.151-.048-.182-.121-.03-.073-.014-.158.042-.214l5.327-5.351c.037-.037.087-.058.14-.058h10.858c.078,0,.148.045.179.116.032.071.019.153-.032.211l-4.756,5.351c-.037.042-.091.066-.147.066ZM36.685,351.113h10.867l4.406-4.957h-10.338l-4.935,4.957Z" style="fill: #000001;"/>
            </g>
            <g>
              <polygon points="77.313 345.959 73.691 351.31 85.299 351.31 88.358 345.959 77.313 345.959" style="fill: #dbdad1;"/>
              <path d="M85.299,351.506h-11.608c-.073,0-.14-.04-.174-.104-.034-.064-.03-.142.011-.202l3.622-5.351c.037-.054.098-.086.163-.086h11.045c.07,0,.135.037.17.098.035.061.035.136,0,.196l-3.059,5.351c-.035.061-.1.099-.171.099ZM74.062,351.113h11.123l2.834-4.957h-10.602l-3.355,4.957Z" style="fill: #000001;"/>
            </g>
            <g>
              <polygon points="101.231 345.959 98.733 351.31 110.434 351.31 112.374 345.959 101.231 345.959" style="fill: #dbdad1;"/>
              <path d="M110.434,351.506h-11.702c-.067,0-.13-.034-.166-.091-.036-.057-.041-.128-.012-.189l2.499-5.351c.032-.069.102-.113.178-.113h11.143c.064,0,.124.031.161.084.037.053.046.12.024.18l-1.941,5.351c-.028.078-.102.129-.185.129ZM99.042,351.113h11.255l1.798-4.957h-10.737l-2.315,4.957Z" style="fill: #000001;"/>
            </g>
            <g>
              <polygon points="125.207 345.959 123.822 351.31 135.588 351.31 136.42 345.959 125.207 345.959" style="fill: #dbdad1;"/>
              <path d="M135.588,351.506h-11.766c-.061,0-.118-.028-.156-.076-.037-.048-.05-.111-.035-.169l1.385-5.351c.022-.087.101-.147.19-.147h11.213c.057,0,.112.025.149.069.037.044.054.102.045.158l-.832,5.351c-.015.096-.097.166-.195.166ZM124.076,351.113h11.344l.771-4.957h-10.831l-1.283,4.957Z" style="fill: #000001;"/>
            </g>
            <g>
              <polygon points="89.265 345.959 86.206 351.31 97.864 351.31 100.362 345.959 89.265 345.959" style="fill: #dbdad1;"/>
              <path d="M97.864,351.506h-11.658c-.07,0-.135-.037-.17-.098s-.035-.136,0-.196l3.059-5.351c.035-.061.1-.099.171-.099h11.098c.067,0,.13.034.166.091s.041.128.012.189l-2.498,5.351c-.032.069-.102.113-.178.113ZM86.545,351.113h11.194l2.315-4.957h-10.675l-2.834,4.957Z" style="fill: #000001;"/>
            </g>
            <g>
              <polygon points="113.212 345.959 111.271 351.31 123.009 351.31 124.394 345.959 113.212 345.959" style="fill: #dbdad1;"/>
              <path d="M123.009,351.506h-11.738c-.064,0-.124-.031-.161-.084-.037-.053-.046-.12-.024-.18l1.94-5.351c.028-.078.102-.129.185-.129h11.182c.061,0,.118.028.156.076.037.048.05.111.035.169l-1.385,5.351c-.023.087-.101.148-.191.148ZM111.552,351.113h11.304l1.283-4.957h-10.79l-1.798,4.957Z" style="fill: #000001;"/>
            </g>
            <g>
              <polygon points="64.991 345.172 69.179 339.822 58.905 339.822 54.15 345.172 64.991 345.172" style="fill: #dbdad1;"/>
              <path d="M64.991,345.369h-10.842c-.077,0-.148-.045-.179-.116-.032-.071-.019-.153.032-.211l4.756-5.35c.037-.042.091-.066.147-.066h10.273c.075,0,.144.043.177.111.033.068.024.148-.022.208l-4.188,5.35c-.037.048-.094.075-.155.075ZM54.588,344.975h10.308l3.879-4.956h-9.781l-4.406,4.956Z" style="fill: #000001;"/>
            </g>
            <g>
              <polygon points="136.385 351.31 148.172 351.31 148.454 345.959 137.217 345.959 136.385 351.31" style="fill: #dbdad1;"/>
              <path d="M148.172,351.506h-11.787c-.057,0-.112-.025-.149-.069-.037-.044-.054-.101-.045-.158l.832-5.351c.015-.096.097-.166.194-.166h11.237c.054,0,.106.022.143.061.037.039.057.092.054.146l-.282,5.351c-.006.105-.092.186-.197.186ZM136.615,351.113h11.371l.261-4.957h-10.861l-.771,4.957Z" style="fill: #000001;"/>
            </g>
            <g>
              <polygon points="284.731 345.172 278.779 339.822 272.207 339.822 277.315 345.172 284.731 345.172" style="fill: #dbdad1;"/>
              <path d="M284.731,345.369h-7.416c-.054,0-.105-.022-.142-.061l-5.108-5.35c-.055-.057-.07-.141-.038-.213.031-.073.102-.119.181-.119h6.572c.049,0,.095.018.131.05l5.953,5.35c.061.055.082.141.052.217-.029.076-.102.126-.184.126ZM277.399,344.975h6.819l-5.515-4.956h-6.036l4.732,4.956Z" style="fill: #000001;"/>
            </g>
            <g>
              <polygon points="300.005 357.84 309.297 357.84 301.946 352.097 293.614 352.097 300.005 357.84" style="fill: #dbdad1;"/>
              <path d="M309.297,358.037h-9.291c-.048,0-.095-.018-.131-.05l-6.391-5.743c-.061-.055-.082-.141-.052-.217.029-.076.102-.126.184-.126h8.332c.044,0,.086.015.121.042l7.351,5.743c.066.051.092.139.065.219-.027.079-.102.133-.186.133ZM300.081,357.643h8.644l-6.847-5.35h-7.751l5.953,5.35Z" style="fill: #000001;"/>
            </g>
            <g>
              <polygon points="283.926 352.097 289.41 357.84 298.828 357.84 292.436 352.097 283.926 352.097" style="fill: #dbdad1;"/>
              <path d="M298.828,358.037h-9.417c-.054,0-.105-.022-.142-.061l-5.484-5.743c-.054-.057-.069-.141-.038-.213.031-.073.102-.12.181-.12h8.51c.049,0,.095.018.131.05l6.391,5.743c.061.055.081.141.052.217s-.102.126-.184.126ZM289.495,357.643h8.82l-5.953-5.35h-7.975l5.108,5.35Z" style="fill: #000001;"/>
            </g>
            <g>
              <polygon points="264.861 352.097 269.611 357.84 277.984 357.84 273.125 352.097 264.861 352.097" style="fill: #dbdad1;"/>
              <path d="M277.984,358.037h-8.373c-.059,0-.114-.026-.152-.071l-4.75-5.743c-.048-.059-.059-.14-.026-.209.033-.069.102-.113.178-.113h8.264c.058,0,.113.025.15.07l4.859,5.743c.049.059.061.141.028.21-.032.069-.102.114-.179.114ZM269.704,357.643h7.856l-4.526-5.35h-7.755l4.425,5.35Z" style="fill: #000001;"/>
            </g>
            <g>
              <polygon points="274.156 352.097 279.015 357.84 288.322 357.84 282.838 352.097 274.156 352.097" style="fill: #dbdad1;"/>
              <path d="M288.322,358.037h-9.308c-.058,0-.113-.025-.15-.069l-4.859-5.743c-.049-.059-.06-.141-.028-.21.032-.07.102-.114.178-.114h8.683c.054,0,.105.022.142.061l5.484,5.743c.054.057.07.141.038.213-.031.073-.102.119-.181.119ZM279.106,357.643h8.756l-5.108-5.35h-8.174l4.526,5.35Z" style="fill: #000001;"/>
            </g>
            <g>
              <polygon points="276.227 345.172 271.119 339.822 263.773 339.822 268.298 345.172 276.227 345.172" style="fill: #dbdad1;"/>
              <path d="M276.227,345.369h-7.929c-.058,0-.113-.025-.15-.069l-4.525-5.35c-.049-.059-.06-.141-.028-.21.032-.07.102-.114.178-.114h7.346c.054,0,.105.022.142.061l5.108,5.35c.054.057.07.141.039.213-.031.073-.102.119-.181.119ZM268.39,344.975h7.378l-4.732-4.956h-6.838l4.193,4.956Z" style="fill: #000001;"/>
            </g>
            <g>
              <polygon points="278.067 345.959 283.175 351.31 291.561 351.31 285.607 345.959 278.067 345.959" style="fill: #dbdad1;"/>
              <path d="M291.561,351.506h-8.386c-.054,0-.105-.022-.142-.061l-5.108-5.351c-.054-.057-.07-.141-.038-.213.031-.073.102-.119.181-.119h7.541c.049,0,.096.018.131.05l5.953,5.351c.061.055.082.141.052.217-.029.076-.102.126-.184.126ZM283.259,351.113h7.789l-5.516-4.957h-7.005l4.733,4.957Z" style="fill: #000001;"/>
            </g>
            <g>
              <polygon points="268.964 345.959 273.49 351.31 282.087 351.31 276.979 345.959 268.964 345.959" style="fill: #dbdad1;"/>
              <path d="M282.087,351.506h-8.597c-.058,0-.113-.025-.15-.07l-4.526-5.351c-.049-.059-.06-.141-.028-.21.032-.07.102-.114.178-.114h8.014c.054,0,.105.022.142.061l5.108,5.351c.054.057.07.141.039.213-.031.073-.102.119-.181.119ZM273.581,351.113h8.046l-4.733-4.957h-7.506l4.193,4.957Z" style="fill: #000001;"/>
            </g>
            <g>
              <polygon points="262.742 339.822 254.71 339.822 259.135 345.172 267.267 345.172 262.742 339.822" style="fill: #dbdad1;"/>
              <path d="M267.268,345.369h-8.133c-.059,0-.114-.026-.152-.071l-4.424-5.35c-.049-.059-.059-.14-.026-.209.032-.069.102-.113.178-.113h8.032c.058,0,.113.025.15.07l4.526,5.35c.049.059.061.141.028.21-.032.07-.102.114-.178.114ZM259.227,344.975h7.616l-4.193-4.956h-7.522l4.099,4.956Z" style="fill: #000001;"/>
            </g>
            <g>
              <polygon points="259.785 345.959 264.21 351.31 272.459 351.31 267.933 345.959 259.785 345.959" style="fill: #dbdad1;"/>
              <path d="M272.459,351.506h-8.249c-.059,0-.114-.026-.152-.071l-4.425-5.351c-.049-.059-.059-.14-.026-.209.032-.069.102-.113.178-.113h8.148c.058,0,.113.025.15.069l4.526,5.351c.049.059.061.141.028.21-.032.069-.102.114-.179.114ZM264.303,351.113h7.732l-4.193-4.957h-7.638l4.099,4.957Z" style="fill: #000001;"/>
            </g>
            <g>
              <polygon points="263.189 351.31 258.764 345.959 251.565 345.959 255.531 351.31 263.189 351.31" style="fill: #dbdad1;"/>
              <path d="M263.189,351.506h-7.657c-.062,0-.121-.03-.158-.079l-3.967-5.351c-.044-.06-.051-.139-.018-.206.033-.066.101-.108.176-.108h7.199c.059,0,.114.026.152.071l4.425,5.351c.049.059.059.14.026.209-.032.069-.102.113-.178.113ZM255.63,351.113h7.14l-4.099-4.957h-6.716l3.675,4.957Z" style="fill: #000001;"/>
            </g>
            <g>
              <polygon points="285.231 339.035 280.327 335.203 274.817 335.203 279.081 339.035 285.231 339.035" style="fill: #dbdad1;"/>
              <path d="M285.231,339.232h-6.15c-.049,0-.095-.018-.131-.05l-4.264-3.831c-.061-.054-.082-.141-.052-.217s.102-.126.184-.126h5.51c.044,0,.086.015.121.042l4.904,3.831c.066.051.092.139.065.219-.027.079-.102.133-.186.133ZM279.156,338.838h5.503l-4.4-3.438h-4.928l3.826,3.438Z" style="fill: #000001;"/>
            </g>
            <g>
              <polygon points="277.903 339.035 273.639 335.203 267.797 335.203 271.456 339.035 277.903 339.035" style="fill: #dbdad1;"/>
              <path d="M277.903,339.232h-6.447c-.054,0-.105-.022-.142-.061l-3.658-3.831c-.054-.057-.069-.141-.038-.213.031-.073.102-.119.181-.119h5.842c.049,0,.095.018.132.05l4.264,3.831c.061.055.082.141.052.217-.029.076-.102.126-.184.126ZM271.54,338.838h5.849l-3.826-3.438h-5.306l3.283,3.438Z" style="fill: #000001;"/>
            </g>
            <g>
              <polygon points="256.115 352.097 260.373 357.84 268.59 357.84 263.84 352.097 256.115 352.097" style="fill: #dbdad1;"/>
              <path d="M268.589,358.037h-8.216c-.062,0-.121-.03-.158-.08l-4.258-5.743c-.044-.06-.051-.139-.018-.206.033-.066.101-.108.176-.108h7.725c.059,0,.114.026.152.071l4.75,5.743c.049.059.059.14.027.209-.033.069-.102.113-.178.113ZM260.472,357.643h7.699l-4.424-5.35h-7.241l3.967,5.35Z" style="fill: #000001;"/>
            </g>
            <g>
              <polygon points="270.368 339.035 266.709 335.203 259.866 335.203 263.107 339.035 270.368 339.035" style="fill: #dbdad1;"/>
              <path d="M270.368,339.232h-7.261c-.058,0-.113-.025-.15-.07l-3.241-3.831c-.049-.059-.06-.141-.028-.21.032-.07.102-.114.178-.114h6.843c.054,0,.105.022.142.061l3.658,3.831c.054.057.069.141.038.213-.031.073-.102.12-.181.12ZM263.198,338.838h6.709l-3.283-3.438h-6.335l2.908,3.438Z" style="fill: #000001;"/>
            </g>
            <g>
              <polygon points="285.909 345.172 293.085 345.172 286.238 339.822 279.956 339.822 285.909 345.172" style="fill: #dbdad1;"/>
              <path d="M293.084,345.369h-7.175c-.049,0-.095-.018-.131-.05l-5.953-5.35c-.061-.055-.082-.141-.052-.217.029-.076.102-.126.184-.126h6.282c.044,0,.086.015.121.042l6.847,5.35c.066.051.092.139.065.219-.027.079-.102.133-.186.133ZM285.985,344.975h6.528l-6.343-4.956h-5.7l5.515,4.956Z" style="fill: #000001;"/>
            </g>
            <g>
              <polygon points="286.785 345.959 292.739 351.31 300.939 351.31 294.092 345.959 286.785 345.959" style="fill: #dbdad1;"/>
              <path d="M300.939,351.506h-8.2c-.049,0-.095-.018-.132-.05l-5.953-5.351c-.061-.054-.082-.141-.052-.217.029-.076.102-.126.184-.126h7.306c.044,0,.086.015.121.042l6.847,5.351c.066.052.092.14.065.219-.027.079-.102.133-.186.133ZM292.814,351.113h7.554l-6.344-4.957h-6.725l5.515,4.957Z" style="fill: #000001;"/>
            </g>
            <g>
              <polygon points="262.076 339.035 258.835 335.203 250.891 335.203 254.059 339.035 262.076 339.035" style="fill: #dbdad1;"/>
              <path d="M262.076,339.232h-8.017c-.059,0-.114-.026-.152-.071l-3.169-3.831c-.049-.059-.059-.14-.027-.209.033-.069.102-.113.178-.113h7.944c.058,0,.113.025.15.069l3.241,3.831c.049.059.06.141.028.21-.032.07-.102.114-.179.114ZM254.152,338.838h7.5l-2.908-3.438h-7.435l2.843,3.438Z" style="fill: #000001;"/>
            </g>
            <g>
              <polygon points="249.869 335.203 243.59 335.203 246.431 339.035 253.038 339.035 249.869 335.203" style="fill: #dbdad1;"/>
              <path d="M253.038,339.232h-6.607c-.062,0-.121-.03-.158-.08l-2.841-3.831c-.044-.06-.051-.139-.018-.206.033-.066.101-.108.176-.108h6.279c.059,0,.114.026.152.071l3.169,3.831c.049.059.059.14.027.209-.032.069-.102.113-.178.113ZM246.53,338.838h6.09l-2.843-3.438h-5.796l2.549,3.438Z" style="fill: #000001;"/>
            </g>
            <g>
              <polygon points="258.113 345.172 253.689 339.822 247.015 339.822 250.981 345.172 258.113 345.172" style="fill: #dbdad1;"/>
              <path d="M258.113,345.369h-7.132c-.062,0-.121-.03-.158-.08l-3.966-5.35c-.044-.06-.051-.139-.018-.206.033-.066.101-.108.176-.108h6.674c.059,0,.114.026.152.071l4.424,5.35c.049.059.059.14.026.209-.032.069-.102.113-.178.113ZM251.08,344.975h6.615l-4.099-4.956h-6.191l3.675,4.956Z" style="fill: #000001;"/>
            </g>
            <g>
              <polygon points="230.889 345.959 233.88 351.31 242.039 351.31 238.657 345.959 230.889 345.959" style="fill: #dbdad1;"/>
              <path d="M242.039,351.506h-8.158c-.071,0-.137-.038-.172-.101l-2.992-5.351c-.034-.061-.033-.135.002-.196.035-.06.1-.097.17-.097h7.768c.067,0,.13.034.167.091l3.382,5.351c.038.061.041.138.006.2-.035.063-.101.102-.172.102ZM233.996,351.113h7.685l-3.133-4.957h-7.324l2.772,4.957Z" style="fill: #000001;"/>
            </g>
            <g>
              <polygon points="234.32 352.097 237.532 357.84 246.166 357.84 242.536 352.097 234.32 352.097" style="fill: #dbdad1;"/>
              <path d="M246.167,358.037h-8.634c-.071,0-.137-.038-.172-.101l-3.212-5.743c-.034-.061-.033-.135.002-.196s.1-.097.17-.097h8.216c.068,0,.13.035.166.092l3.631,5.743c.038.061.041.138.006.2s-.101.102-.172.102ZM237.648,357.643h8.161l-3.382-5.35h-7.772l2.992,5.35Z" style="fill: #000001;"/>
            </g>
            <g>
              <polygon points="224.237 352.097 227.475 357.84 236.63 357.84 233.418 352.097 224.237 352.097" style="fill: #dbdad1;"/>
              <path d="M236.63,358.037h-9.155c-.071,0-.137-.038-.171-.1l-3.238-5.743c-.034-.061-.034-.135.002-.196.035-.06.1-.098.17-.098h9.182c.071,0,.137.038.172.101l3.212,5.743c.034.061.033.135-.002.196-.035.06-.1.097-.17.097ZM227.59,357.643h8.705l-2.992-5.35h-8.73l3.016,5.35Z" style="fill: #000001;"/>
            </g>
            <g>
              <polygon points="247.098 357.84 256.202 357.84 252.199 352.097 243.467 352.097 247.098 357.84" style="fill: #dbdad1;"/>
              <path d="M256.202,358.037h-9.105c-.067,0-.13-.034-.166-.091l-3.631-5.743c-.038-.061-.041-.138-.006-.2.035-.063.101-.102.172-.102h8.732c.064,0,.125.032.161.084l4.003,5.743c.042.06.047.139.013.204-.034.065-.101.106-.174.106ZM247.206,357.643h8.619l-3.729-5.35h-8.272l3.382,5.35Z" style="fill: #000001;"/>
            </g>
          </g>
          <path d="M65.319,148.641c.44-7.857,1.008-16.572,1.736-25.461h-10.857c.008,8.897.019,17.61.03,25.461h9.091Z" style="fill: #6d6f71;"/>
          <path d="M70.944,36.409s-14.44.013-14.663,16.264c-.095,6.882-.109,30.946-.094,56.403h12.156c2.697-26.494,6.951-51.337,13.57-56.403,16.453-12.592,71.954-12.592,71.954-12.592v-3.672h-82.922Z" style="fill: #6d6f71;"/>
        </g>
      </g>
    </g>
  </g>
</svg>